<svg width="72" height="72" viewBox="0 0 72 72" fill="none" xmlns="http://www.w3.org/2000/svg">
<rect x="0.5" y="0.5" width="71" height="71" rx="35.5" fill="white"/>
<g clip-path="url(#clip0_734_23090)">
<path d="M36.1947 61.8572C31.5929 61.9801 22.0557 61.4691 18.5356 59.4331C18.1434 59.2494 17.7726 59.0217 17.4031 58.7967C14.3885 56.9585 12.4477 54.3637 11.5994 51.0082C10.6617 47.2996 10.2188 43.538 10.0961 39.7156C9.85069 32.0397 10.7404 26.4348 11.7448 23.8296C13.2041 20.0473 15.7638 17.3619 19.4333 15.5897C20.431 15.1072 21.4688 14.7192 22.5252 14.3647C34.0605 10.5035 51.5984 10.2745 54.3528 10.2008C54.6796 10.1917 55.0077 10.193 55.3345 10.2111C55.6253 10.2267 55.9401 10.2202 56.2189 10.3095C56.1269 10.369 56.0121 10.3858 55.9134 10.4362C55.7761 10.5061 55.6347 10.5863 55.5053 10.6704C55.3919 10.7454 55.3199 10.8592 55.2025 10.9394C54.9544 11.1102 54.6409 11.1567 54.3675 11.2757C52.1906 12.2213 50.0817 13.2717 48.3077 14.8511C47.0912 15.9351 47.0765 16.5482 48.297 17.6322C49.1907 18.4252 50.1124 19.2608 51.2209 19.7058C54.3555 20.9644 56.0402 23.5683 57.6742 26.1593C59.6203 29.2444 60.1712 32.7318 60.2659 36.3058C60.3459 39.3185 60.3259 42.3544 59.7737 45.2947C59.9564 49.1856 57.8195 55.6404 52.7001 59.0114C48.6945 61.6502 42.5773 61.6877 36.1947 61.8572Z" fill="#FF6D03"/>
<path d="M55.6665 11.5303C55.3704 11.7747 55.0209 11.9545 54.7088 12.1848C54.2219 12.5444 53.8604 12.9622 53.4896 13.4266C53.0975 13.9169 52.9 14.5714 53.0148 15.1949C53.1495 15.9257 53.6924 16.3655 54.3033 16.7549C54.5594 16.9179 54.7528 17.1042 55.0289 17.2439C55.6612 17.5647 56.152 18.0562 56.6656 18.5258C58.1755 19.9047 59.1733 21.6186 59.8909 23.4826C60.9807 26.3155 61.6089 29.2479 61.6783 32.2748C61.7583 35.7946 61.7863 39.3182 61.5502 42.8302C61.3448 45.8726 60.8766 48.8995 59.9162 51.8125C59.4707 53.163 58.7971 54.5885 57.9328 55.904C56.2201 58.5079 53.4429 60.2801 50.3083 60.8182C48.2368 61.1739 42.7386 61.628 42.4331 61.6292C44.5006 60.8531 46.9456 59.9567 48.9117 59.0642C50.4977 58.3436 51.9383 57.3567 53.1828 56.1627C54.4567 54.9403 55.7412 53.7257 56.6549 52.22C57.8807 50.1995 58.9398 48.1195 59.3547 45.7588C59.5107 44.8714 59.8802 40.7062 59.8816 40.3336C59.8909 38.6443 59.9896 36.9458 59.8629 35.2655C59.6588 32.5633 59.2186 29.9038 57.9728 27.4124C57.5219 26.5108 57.2191 25.6221 56.6216 24.7788C56.016 23.9237 55.2957 23.1515 54.5394 22.4206C53.611 21.5255 52.4625 21.0132 51.4154 20.285C50.6938 19.7831 49.8481 19.4946 49.1238 18.9707C47.7766 17.9954 46.4601 16.0008 48.0327 14.6037C49.0932 13.6607 50.267 12.8329 51.5582 12.212C52.3038 11.8537 53.0308 11.4591 53.7897 11.1267C54.1446 10.9702 54.5287 10.8706 54.8755 10.7153C55.0863 10.6209 55.2984 10.5278 55.5144 10.445C55.6492 10.3932 55.7999 10.3143 55.9413 10.2833C56.0987 10.2484 56.2841 10.2587 56.4375 10.3079C57.2311 10.5666 55.8986 11.3388 55.6665 11.5303Z" fill="#F54D05"/>
<path d="M35.4049 57.9305C33.3627 58.1 31.3766 57.9254 29.4144 57.6602C26.0277 57.2023 22.9705 55.9385 20.4548 53.6476C18.9155 52.2454 17.8484 50.4978 17.1281 48.5769C16.1437 45.9536 15.6248 43.2462 15.6155 40.4392C15.6075 37.9414 15.7769 35.4668 16.2278 33.0078C16.8467 29.6368 18.498 26.8479 21.1964 24.6399C21.7887 24.1548 22.3502 23.6335 22.9678 23.1808C24.5258 22.0386 26.2318 21.1874 28.1206 20.6454C30.2201 20.0439 32.3543 19.5148 34.5232 19.4709C36.7361 19.4269 38.9797 19.4722 41.1646 19.987C41.8222 20.1422 42.4811 20.2961 43.14 20.4488C46.1893 21.1551 48.7183 22.7293 51.0392 24.733C54.0925 27.368 55.6905 30.6484 56.1627 34.5445C56.3547 36.133 56.5175 37.7267 56.5588 39.3138C56.6509 42.8685 56.108 46.3481 54.5887 49.6182C52.6079 53.8817 49.0424 56.2606 44.4739 57.3562C43.6336 57.558 42.7505 57.6201 41.8835 57.6744C39.7093 57.8102 37.5417 58.1168 35.4049 57.9305Z" fill="white"/>
<path d="M37.1283 37.8953C37.4724 36.2512 38.2207 34.9188 39.4119 33.8038C42.9013 30.5363 49.4799 31.6552 51.0059 36.8682C52.145 40.7618 49.6467 44.0176 46.2066 45.0292C42.2984 46.1791 38.2954 43.9698 37.2803 40.1305C37.2323 39.9494 37.2256 39.758 37.1829 39.5756C37.0789 39.1435 37.0149 39.075 36.46 39.1021C36.0198 39.1228 35.4422 38.8952 35.2622 39.5678C35.2261 39.7036 35.2061 39.8446 35.1715 39.9818C34.4872 42.6982 32.7331 44.4626 29.9627 45.1249C24.6258 46.4003 20.6295 42.0669 21.2191 37.9198C21.6446 34.9279 24.5365 32.1131 27.9965 32.0083C30.8564 31.9217 34.2671 33.6654 35.1114 37.123C35.3169 37.9651 35.4983 38.0194 36.2799 37.9599C36.5173 37.9392 36.7574 37.9224 37.1283 37.8953Z" fill="#0F477D"/>
<path d="M36.2788 48.3095C35.3197 48.2668 34.2379 48.0404 33.2242 47.5631C32.6093 47.2733 32.041 46.9098 31.7516 46.2695C31.6515 46.047 31.6582 45.8026 31.885 45.637C32.1037 45.4779 32.3558 45.4895 32.5452 45.668C34.55 47.5734 36.879 47.3988 39.288 46.6537C39.7015 46.5256 40.0523 46.2618 40.3657 45.9565C40.5325 45.7948 40.7339 45.6512 40.946 45.5555C41.0527 45.5076 41.2408 45.549 41.3528 45.6137C41.5236 45.7107 41.6036 45.8853 41.5782 46.0923C41.5342 46.4454 41.3061 46.699 41.046 46.9034C40.4431 47.3781 39.7948 47.7946 39.0265 47.9757C38.1795 48.1762 37.3192 48.2991 36.2788 48.3095Z" fill="#0F477D"/>
<path d="M28.222 44.2002C25.2861 44.1329 23.0358 42.3375 22.4703 39.6404C22.1195 37.9679 22.5516 36.4234 23.6934 35.1738C25.9477 32.7057 30.1254 32.3073 32.7011 35.0522C35.2702 37.7907 34.3018 41.9766 30.9377 43.6078C30.056 44.0346 29.1183 44.2403 28.222 44.2002Z" fill="white"/>
<path d="M44.2113 44.1575C40.1057 44.133 37.3232 40.3933 38.6664 36.7636C39.3854 34.8207 40.9153 33.7639 42.9055 33.284C45.6959 32.61 48.6465 34.073 49.6842 36.6058C50.79 39.3041 49.5415 42.3737 46.8231 43.6C45.9814 43.9777 45.097 44.2119 44.2113 44.1575Z" fill="white"/>
</g>
<rect x="0.5" y="0.5" width="71" height="71" rx="35.5" stroke="#E2E8F0"/>
<defs>
<clipPath id="clip0_734_23090">
<rect width="51.6797" height="51.6797" fill="white" transform="translate(10.0547 10.1953)"/>
</clipPath>
</defs>
</svg>
