<svg width="102" height="36" viewBox="0 0 102 36" fill="none" xmlns="http://www.w3.org/2000/svg">
<g clip-path="url(#clip0_977_12886)">
<path d="M42.4844 8.14258C42.4844 7.84948 42.7206 7.61133 43.0114 7.61133H53.188C55.2051 7.61133 56.7316 8.10594 57.7856 9.11349C58.8396 10.121 59.3666 11.5682 59.3666 13.4368C59.3666 14.5176 59.1667 15.4519 58.7669 16.2396C58.5125 16.7525 58.1854 17.1922 57.7856 17.5586C57.5312 17.7967 57.5675 18.2364 57.8765 18.4012C58.4943 18.7493 58.985 19.1706 59.3303 19.6836C59.8209 20.398 60.0753 21.4056 60.0753 22.6879C60.0753 24.7213 59.512 26.2784 58.3853 27.3409C57.2586 28.4034 55.6231 28.953 53.5151 28.953H43.0295C42.7388 28.953 42.5025 28.7148 42.5025 28.4217V8.14258H42.4844ZM51.6797 16.2945C53.3515 16.2945 54.1875 15.5068 54.1875 13.9131C54.1875 13.0704 53.9694 12.4476 53.5514 12.0629C53.1335 11.6598 52.4247 11.4583 51.4071 11.4583H48.0633C47.7726 11.4583 47.5363 11.6965 47.5363 11.9896V15.7816C47.5363 16.0747 47.7726 16.3129 48.0633 16.3129H51.6797V16.2945ZM52.1703 25.1426C53.1153 25.1426 53.8058 24.9411 54.242 24.5381C54.6781 24.1351 54.8962 23.4206 54.8962 22.4314C54.8962 21.5887 54.6781 20.9659 54.2238 20.5812C53.7695 20.1782 53.0244 19.9767 51.9704 19.9767H48.0633C47.7726 19.9767 47.5363 20.2148 47.5363 20.5079V24.6297C47.5363 24.9228 47.7726 25.161 48.0633 25.161H52.1703V25.1426Z" fill="#1A202C"/>
<path d="M63.5462 17.1918H62.4559C62.147 17.1918 61.9107 16.9171 61.9471 16.6056L62.2742 13.7112C62.3105 13.4548 62.5286 13.2533 62.783 13.2533H68.6164C68.9071 13.2533 69.1434 13.4914 69.1434 13.7845V28.4397C69.1434 28.7328 68.9071 28.971 68.6164 28.971H64.6002C64.3095 28.971 64.0732 28.7328 64.0732 28.4397V17.7231C64.0732 17.43 63.837 17.1918 63.5462 17.1918ZM64.1823 6.75H68.6527C68.9435 6.75 69.1797 6.98815 69.1797 7.28125V10.2489C69.1797 10.542 68.9435 10.7802 68.6527 10.7802H64.1823C63.8915 10.7802 63.6553 10.542 63.6553 10.2489V7.28125C63.6553 6.98815 63.8915 6.75 64.1823 6.75Z" fill="#1A202C"/>
<path d="M74.4679 27.8169C73.5774 26.846 73.1231 25.472 73.1231 23.6768V17.8147C73.1231 17.5216 72.8869 17.2834 72.5961 17.2834H71.633C71.3422 17.2834 71.106 17.0453 71.106 16.7522V13.7662C71.106 13.4731 71.3422 13.2349 71.633 13.2349H72.5961C72.8869 13.2349 73.1231 12.9968 73.1231 12.7037V10.3588C73.1231 10.1207 73.2867 9.91917 73.5047 9.8459L77.5209 8.71012C77.848 8.61852 78.1751 8.87499 78.1751 9.22305V12.7037C78.1751 12.9968 78.4113 13.2349 78.7021 13.2349H81.2462C81.537 13.2349 81.7914 13.4914 81.7732 13.7845L81.6097 16.7705C81.5915 17.0453 81.3734 17.2651 81.0827 17.2651H78.7021C78.4113 17.2651 78.1751 17.5033 78.1751 17.7964V23.2921C78.1751 24.0432 78.3386 24.5744 78.6839 24.8675C79.011 25.1606 79.5562 25.3072 80.3194 25.3072C80.7192 25.3072 81.1372 25.2522 81.537 25.1606C81.8641 25.0873 82.173 25.3255 82.173 25.6735V28.2382C82.173 28.458 82.0458 28.6596 81.8277 28.7328C80.9009 29.0809 79.7924 29.2641 78.484 29.2641C76.7031 29.2824 75.3583 28.7878 74.4679 27.8169Z" fill="#1A202C"/>
<path d="M84.6623 27.7074C83.681 26.6632 83.2085 25.1244 83.2085 23.1276V13.7849C83.2085 13.4918 83.4447 13.2537 83.7355 13.2537H87.7516C88.0424 13.2537 88.2786 13.4918 88.2786 13.7849V22.8345C88.2786 23.7138 88.4785 24.355 88.8783 24.7763C89.2781 25.1794 89.8959 25.3809 90.7319 25.3809C91.3134 25.3809 91.8767 25.2526 92.4219 24.9962C92.8944 24.7763 93.3124 24.4832 93.6576 24.1352C93.7485 24.0436 93.803 23.9153 93.803 23.7688V13.7666C93.803 13.4735 94.0392 13.2354 94.33 13.2354H98.3461C98.6369 13.2354 98.8731 13.4735 98.8731 13.7666V28.4218C98.8731 28.7149 98.6369 28.9531 98.3461 28.9531H94.6026C94.33 28.9531 94.1119 28.7516 94.0938 28.4951C94.0574 28.1104 93.6213 27.9089 93.3124 28.1104C92.0403 28.8981 90.532 29.2828 88.8056 29.2828C87.0065 29.2828 85.6254 28.7516 84.6623 27.7074Z" fill="#1A202C"/>
<path d="M17.5124 35.9875C14.4275 36.0752 8.03396 35.7116 5.68301 34.2947C5.42179 34.1693 5.17302 34.0063 4.92424 33.8558C2.90914 32.5768 1.60306 30.7712 1.03087 28.4263C0.396488 25.8433 0.110394 23.2226 0.0233222 20.5643C-0.138383 15.2226 0.458683 11.3103 1.13038 9.49216C2.11305 6.85893 3.82962 4.9906 6.28008 3.76176C6.95178 3.4232 7.64835 3.15987 8.35737 2.90909C16.0819 0.213166 27.8366 0.0501567 29.69 0C29.9139 0 30.1254 0 30.3493 0.0125392C30.5483 0.0250784 30.7598 0.0250784 30.9464 0.0752351C30.8842 0.112853 30.8095 0.125392 30.7473 0.163009C30.6603 0.213166 30.5608 0.263323 30.4737 0.326019C30.3991 0.376176 30.3493 0.451411 30.2747 0.514107C30.113 0.626959 29.9015 0.664577 29.7149 0.752351C28.2596 1.41693 26.8415 2.1442 25.6598 3.24765C24.8389 4 24.8389 4.42633 25.6474 5.19122C26.2445 5.74295 26.8664 6.31975 27.6127 6.63323C29.7149 7.51097 30.8469 9.32915 31.9415 11.1348C33.2476 13.279 33.6207 15.7116 33.6829 18.2069C33.7327 20.3009 33.7202 22.4201 33.3595 24.4639C33.4839 27.1724 32.0534 31.674 28.6203 34.0188C25.8962 35.8495 21.7914 35.8746 17.5124 35.9875Z" fill="#FF6D03"/>
<path d="M30.5754 0.927233C30.3764 1.10278 30.1401 1.22817 29.9286 1.37864C29.6052 1.62943 29.3564 1.91783 29.1076 2.24385C28.8464 2.58241 28.7096 3.04636 28.7842 3.47269C28.8713 3.98679 29.2445 4.28773 29.6425 4.5636C29.8167 4.67645 29.9411 4.80184 30.1276 4.90215C30.5506 5.12786 30.874 5.46642 31.2223 5.79244C32.2298 6.75795 32.9015 7.94918 33.3866 9.24071C34.1205 11.2094 34.5434 13.2533 34.5808 15.3598C34.6305 17.8175 34.6554 20.2627 34.4937 22.7078C34.3569 24.8269 34.0459 26.9335 33.3991 28.9648C33.1005 29.9053 32.6527 30.8959 32.0681 31.8112C30.9237 33.6294 29.0579 34.8583 26.9557 35.2344C25.5626 35.4852 21.8807 35.7987 21.6816 35.7987C23.0624 35.2595 24.7043 34.6326 26.0228 34.0056C27.0801 33.504 28.0503 32.8144 28.8837 31.9868C29.742 31.1341 30.6003 30.294 31.2098 29.2407C32.0308 27.8363 32.7398 26.3818 33.0135 24.7391C33.113 24.1247 33.3617 21.2156 33.3617 20.9648C33.3617 19.7862 33.4364 18.6075 33.3493 17.4288C33.2125 15.5479 32.9139 13.6921 32.0805 11.9617C31.782 11.3348 31.5705 10.7203 31.1725 10.131C30.762 9.54165 30.2893 9.00247 29.7793 8.48836C29.1574 7.8614 28.3862 7.5103 27.6896 6.9962C27.2045 6.6451 26.6448 6.44447 26.1596 6.08084C25.2516 5.40372 24.3684 4.01187 25.4257 3.03382C26.1348 2.38178 26.9184 1.80498 27.7891 1.3661C28.2867 1.11532 28.7718 0.839459 29.2818 0.613754C29.5181 0.500901 29.7793 0.438205 30.0157 0.325352C30.1525 0.262656 30.3018 0.199961 30.4386 0.137265C30.5257 0.0996471 30.6252 0.0494904 30.7247 0.024412C30.8242 -0.000666338 30.9486 0.0118728 31.0606 0.0369512C31.6203 0.262656 30.7247 0.801841 30.5754 0.927233Z" fill="#F54D05"/>
<path d="M16.9923 33.2536C15.624 33.3665 14.293 33.2536 12.9745 33.0655C10.7106 32.752 8.65822 31.8618 6.96653 30.2693C5.9341 29.2912 5.22509 28.0749 4.73997 26.7332C4.08071 24.9151 3.73242 23.0216 3.73242 21.0655C3.73242 19.3226 3.84437 17.6047 4.1429 15.8868C4.55339 13.542 5.66045 11.5984 7.46408 10.0687C7.86213 9.7301 8.23529 9.36647 8.64578 9.05299C9.69064 8.26302 10.835 7.66114 12.1038 7.28496C13.5094 6.87117 14.9398 6.49499 16.3952 6.46992C17.8754 6.44484 19.3805 6.46992 20.8483 6.83355C21.2837 6.9464 21.7315 7.04672 22.1668 7.15957C24.2068 7.6486 25.9109 8.75205 27.4658 10.1439C29.5182 11.9746 30.5879 14.2693 30.8989 16.9778C31.0233 18.0812 31.1353 19.1972 31.1601 20.3006C31.2223 22.7709 30.8616 25.2035 29.8416 27.4856C28.5107 30.4574 26.1224 32.1125 23.0624 32.8774C22.5027 33.0154 21.9056 33.0655 21.321 33.1031C19.8781 33.1658 18.4227 33.3915 16.9923 33.2536Z" fill="white"/>
<path d="M18.1488 19.2983C18.3852 18.1572 18.8827 17.2294 19.6788 16.4519C22.0173 14.1698 26.4207 14.9598 27.4531 18.5836C28.2119 21.292 26.5451 23.5616 24.2315 24.2638C21.6069 25.0663 18.9325 23.524 18.2484 20.8532C18.211 20.7278 18.211 20.5899 18.1862 20.4645C18.1115 20.1635 18.0742 20.1134 17.701 20.1384C17.4025 20.151 17.0169 19.988 16.8925 20.4645C16.8676 20.5648 16.8552 20.6525 16.8303 20.7529C16.3701 22.6463 15.2008 23.8751 13.335 24.3391C9.75261 25.2293 7.07825 22.2074 7.4763 19.3234C7.76239 17.2419 9.70286 15.2732 12.0165 15.2105C13.9321 15.1478 16.2208 16.3641 16.7806 18.7717C16.9174 19.361 17.0418 19.3986 17.5642 19.3485C17.7384 19.3234 17.9001 19.3234 18.1488 19.2983Z" fill="#1A202C"/>
<path d="M17.5763 26.5582C16.9294 26.5331 16.208 26.3701 15.5238 26.044C15.1134 25.8434 14.7278 25.5926 14.5412 25.1412C14.479 24.9908 14.479 24.8152 14.6282 24.7024C14.7775 24.5895 14.9392 24.602 15.076 24.7274C16.4194 26.0566 17.9743 25.9312 19.5914 25.4171C19.865 25.3293 20.1014 25.1412 20.3128 24.9281C20.4248 24.8152 20.5616 24.7149 20.6984 24.6522C20.773 24.6146 20.8974 24.6522 20.9721 24.6898C21.084 24.7525 21.1462 24.8779 21.1213 25.0284C21.0965 25.2792 20.9348 25.4547 20.7606 25.5926C20.3626 25.9187 19.9272 26.2196 19.4048 26.345C18.845 26.4578 18.2728 26.5456 17.5763 26.5582Z" fill="#1A202C"/>
<path d="M12.1779 23.6864C10.2125 23.6362 8.70744 22.3949 8.32183 20.514C8.0855 19.3479 8.37159 18.2695 9.1428 17.4043C10.6479 15.6864 13.4591 15.4105 15.1757 17.3165C16.8922 19.2225 16.2454 22.1441 13.994 23.2726C13.4093 23.5736 12.775 23.724 12.1779 23.6864Z" fill="white"/>
<path d="M22.8877 23.6623C20.1387 23.6498 18.2729 21.0416 19.1685 18.5087C19.6536 17.1545 20.6736 16.4147 22.0046 16.0886C23.8704 15.6247 25.8482 16.6404 26.5447 18.4084C27.2911 20.2893 26.4452 22.4209 24.6292 23.2861C24.0819 23.5369 23.4848 23.6999 22.8877 23.6623Z" fill="white"/>
</g>
<defs>
<clipPath id="clip0_977_12886">
<rect width="101.887" height="36" fill="white"/>
</clipPath>
</defs>
</svg>
