<svg width="95" height="124" viewBox="0 0 95 124" fill="none" xmlns="http://www.w3.org/2000/svg">
<g clip-path="url(#clip0_936_147938)">
<path d="M22.2321 43.1885L31.2521 57.7845C32.8921 56.9645 36.1721 55.9805 41.2561 55.9805C50.2761 55.9805 60.1161 61.2285 60.1161 73.5285C60.1161 83.2045 52.9001 91.5685 39.9441 91.5685C28.1361 91.5685 19.2801 83.2045 18.7881 70.9045L-0.399902 74.8405C0.912098 92.5525 15.5081 108.461 40.1081 108.461C65.3641 108.461 79.9601 91.8965 79.9601 73.6925C79.9601 53.1925 64.0521 41.7125 48.1441 41.3845L77.0081 16.1285V-0.271484H3.2081V16.9485H51.5881L22.2321 43.1885Z" fill="#FFB700"/>
<path d="M124.5 124.5L93.0002 43L11.062 124.5H124.5Z" fill="white"/>
<path d="M15 120.5L84.5 51.5" stroke="#FFB700"/>
</g>
<defs>
<clipPath id="clip0_936_147938">
<rect width="95" height="124" fill="white"/>
</clipPath>
</defs>
</svg>
