<svg width="95" height="124" viewBox="0 0 95 124" fill="none" xmlns="http://www.w3.org/2000/svg">
<g clip-path="url(#clip0_936_147937)">
<path d="M4.34514 41.2676L23.3691 42.5796C23.2051 40.7756 22.8771 38.8076 22.8771 37.1676C22.8771 26.1796 28.9451 17.4876 41.4091 17.4876C53.3811 17.4876 59.2851 25.3596 59.2851 34.0516C59.2851 41.7596 55.1851 48.1556 45.6731 54.0596L28.1251 65.0476C9.59314 76.5276 3.19714 90.7956 2.86914 109H79.7851V91.6156H27.1411C28.6171 86.3676 32.8811 82.5956 37.9651 79.4796L58.6291 66.6876C71.4212 58.8156 79.1291 47.4996 79.1291 33.7236C79.1291 15.5196 65.1891 0.267578 41.7371 0.267578C17.6291 0.267578 3.85314 16.8316 3.85314 35.1996C3.85314 37.3316 4.18114 39.7916 4.34514 41.2676Z" fill="#2971F0"/>
<path d="M125.5 127.5L94.0002 46L12.062 127.5H125.5Z" fill="white"/>
<path d="M16 123.5L85.5 54.5" stroke="#2971F0"/>
</g>
<defs>
<clipPath id="clip0_936_147937">
<rect width="95" height="124" fill="white"/>
</clipPath>
</defs>
</svg>
