<svg width="124" height="74" viewBox="0 0 124 74" fill="none" xmlns="http://www.w3.org/2000/svg">
<path d="M123.152 22.803C123.558 22.7191 123.818 22.3222 123.734 21.9166L122.367 15.3066C122.283 14.9009 121.886 14.6402 121.48 14.7241C121.075 14.808 120.814 15.2049 120.898 15.6105L122.114 21.486L116.238 22.7017C115.832 22.7856 115.572 23.1825 115.656 23.5881C115.739 23.9937 116.136 24.2545 116.542 24.1706L123.152 22.803ZM1.74259 73.1737C1.85473 72.3821 1.97742 71.58 2.11084 70.7686L0.630714 70.5252C0.495503 71.3475 0.371135 72.1606 0.257415 72.9633L1.74259 73.1737ZM3.01295 65.936C3.34128 64.3628 3.7083 62.7654 4.1153 61.1514L2.66083 60.7846C2.24874 62.4188 1.87709 64.0364 1.54459 65.6296L3.01295 65.936ZM5.41099 56.4235C5.8707 54.8717 6.3673 53.3118 6.90186 51.7501L5.48269 51.2643C4.94121 52.8462 4.43828 54.4261 3.97278 55.9974L5.41099 56.4235ZM8.59005 47.1438C9.18311 45.6288 9.81294 44.1183 10.4805 42.6181L9.11008 42.0082C8.43293 43.5299 7.79434 45.0615 7.19326 46.597L8.59005 47.1438ZM12.5804 38.1881C13.3151 36.7316 14.0875 35.291 14.8985 33.872L13.5962 33.1276C12.7718 34.5701 11.9871 36.0337 11.2411 37.5126L12.5804 38.1881ZM17.4449 29.6908C18.3335 28.3213 19.2615 26.9792 20.2298 25.6699L19.0238 24.778C18.0365 26.1129 17.0911 27.4803 16.1866 28.8744L17.4449 29.6908ZM23.2631 21.8388C24.3179 20.5955 25.4142 19.3912 26.5529 18.2314L25.4826 17.1805C24.3174 18.3672 23.1966 19.5985 22.1193 20.8684L23.2631 21.8388ZM30.1026 14.8867C31.3279 13.8213 32.5965 12.8061 33.9095 11.8468L33.0246 10.6357C31.6762 11.6208 30.3745 12.6625 29.1184 13.7548L30.1026 14.8867ZM37.963 9.15371C39.3453 8.32307 40.7717 7.55204 42.2432 6.84599L41.5943 5.4936C40.0796 6.22037 38.6119 7.01374 37.1904 7.86799L37.963 9.15371ZM46.7209 4.95495C48.2236 4.40356 49.7692 3.91714 51.3587 3.50056L50.9785 2.04956C49.3425 2.4783 47.7514 2.97903 46.2042 3.54676L46.7209 4.95495ZM56.1145 2.48907C57.685 2.23011 59.2952 2.03662 60.9459 1.9127L60.8336 0.416914C59.1392 0.544107 57.4851 0.742826 55.8705 1.00905L56.1145 2.48907ZM65.8147 1.75187C67.4048 1.76433 69.0299 1.83897 70.6907 1.97907L70.8168 0.484373C69.1188 0.341141 67.4555 0.26468 65.8264 0.25192L65.8147 1.75187ZM75.5537 2.56337C77.1266 2.80732 78.7294 3.10798 80.3628 3.46782L80.6855 2.00295C79.0222 1.63651 77.3884 1.32999 75.7836 1.08109L75.5537 2.56337ZM85.0811 4.65025C86.6129 5.07957 88.17 5.55936 89.7528 6.09142L90.2307 4.66961C88.6245 4.12965 87.043 3.64231 85.4859 3.2059L85.0811 4.65025ZM94.3897 7.77288C95.8745 8.34987 97.3807 8.97157 98.9085 9.63934L99.5093 8.26489C97.963 7.58906 96.4376 6.95944 94.933 6.37474L94.3897 7.77288ZM103.348 11.681C104.807 12.385 106.285 13.13 107.783 13.9171L108.481 12.5893C106.968 11.7945 105.475 11.0417 103.999 10.33L103.348 11.681ZM112.045 16.243C113.45 17.0373 114.871 17.8678 116.308 18.7353L117.084 17.451C115.634 16.5764 114.201 15.7388 112.784 14.9373L112.045 16.243ZM120.473 21.3237C121.174 21.7723 121.879 22.2294 122.588 22.6953L123.412 21.4418C122.698 20.9725 121.987 20.5119 121.281 20.06L120.473 21.3237Z" fill="#FF6D03"/>
</svg>
