<svg width="124" height="74" viewBox="0 0 124 74" fill="none" xmlns="http://www.w3.org/2000/svg">
<path d="M123.152 51.3337C123.558 51.4177 123.818 51.8145 123.734 52.2201L122.367 58.8301C122.283 59.2358 121.886 59.4966 121.48 59.4126C121.075 59.3287 120.814 58.9319 120.898 58.5262L122.114 52.6507L116.238 51.435C115.832 51.3511 115.572 50.9543 115.656 50.5486C115.739 50.143 116.136 49.8822 116.542 49.9662L123.152 51.3337ZM1.74259 0.962982C1.85473 1.75462 1.97742 2.55671 2.11084 3.36809L0.630714 3.61147C0.495503 2.7892 0.371135 1.97611 0.257415 1.17339L1.74259 0.962982ZM3.01295 8.20068C3.34128 9.77389 3.7083 11.3713 4.1153 12.9854L2.66083 13.3521C2.24874 11.7179 1.87709 10.1004 1.54459 8.50713L3.01295 8.20068ZM5.41099 17.7133C5.8707 19.265 6.3673 20.825 6.90186 22.3866L5.48269 22.8724C4.94121 21.2905 4.43828 19.7107 3.97278 18.1393L5.41099 17.7133ZM8.59005 26.9929C9.18311 28.5079 9.81294 30.0185 10.4805 31.5187L9.11008 32.1285C8.43293 30.6068 7.79434 29.0752 7.19326 27.5397L8.59005 26.9929ZM12.5804 35.9486C13.3151 37.4051 14.0875 38.8457 14.8985 40.2647L13.5962 41.0091C12.7718 39.5666 11.9871 38.103 11.2411 36.6241L12.5804 35.9486ZM17.4449 44.4459C18.3335 45.8154 19.2615 47.1575 20.2298 48.4668L19.0238 49.3587C18.0365 48.0238 17.0911 46.6564 16.1866 45.2624L17.4449 44.4459ZM23.2631 52.2979C24.3179 53.5412 25.4142 54.7456 26.5529 55.9053L25.4826 56.9562C24.3174 55.7695 23.1966 54.5382 22.1193 53.2683L23.2631 52.2979ZM30.1026 59.25C31.3279 60.3154 32.5965 61.3306 33.9095 62.2899L33.0246 63.501C31.6762 62.5159 30.3745 61.4742 29.1184 60.3819L30.1026 59.25ZM37.963 64.983C39.3453 65.8137 40.7717 66.5847 42.2432 67.2907L41.5943 68.6431C40.0796 67.9163 38.6119 67.123 37.1904 66.2687L37.963 64.983ZM46.7209 69.1818C48.2236 69.7332 49.7692 70.2196 51.3587 70.6362L50.9785 72.0872C49.3425 71.6584 47.7514 71.1577 46.2042 70.59L46.7209 69.1818ZM56.1145 71.6476C57.685 71.9066 59.2952 72.1001 60.9459 72.224L60.8336 73.7198C59.1392 73.5926 57.4851 73.3939 55.8705 73.1277L56.1145 71.6476ZM65.8147 72.3848C67.4048 72.3724 69.0299 72.2977 70.6907 72.1577L70.8168 73.6523C69.1188 73.7956 67.4555 73.872 65.8264 73.8848L65.8147 72.3848ZM75.5537 71.5733C77.1266 71.3294 78.7294 71.0287 80.3628 70.6689L80.6855 72.1338C79.0222 72.5002 77.3884 72.8067 75.7836 73.0556L75.5537 71.5733ZM85.0811 69.4865C86.6129 69.0571 88.17 68.5774 89.7528 68.0453L90.2307 69.4671C88.6245 70.0071 87.043 70.4944 85.4859 70.9308L85.0811 69.4865ZM94.3897 66.3638C95.8745 65.7868 97.3807 65.1651 98.9085 64.4974L99.5093 65.8718C97.963 66.5477 96.4376 67.1773 94.933 67.762L94.3897 66.3638ZM103.348 62.4557C104.807 61.7517 106.285 61.0067 107.783 60.2197L108.481 61.5474C106.968 62.3423 105.475 63.095 103.999 63.8067L103.348 62.4557ZM112.045 57.8937C113.45 57.0994 114.871 56.2689 116.308 55.4015L117.084 56.6857C115.634 57.5603 114.201 58.3979 112.784 59.1994L112.045 57.8937ZM120.473 52.813C121.174 52.3644 121.879 51.9073 122.588 51.4414L123.412 52.695C122.698 53.1642 121.987 53.6248 121.281 54.0767L120.473 52.813Z" fill="#FF6D03"/>
</svg>
