<svg width="16" height="16" viewBox="0 0 16 16" fill="none" xmlns="http://www.w3.org/2000/svg">
<g clip-path="url(#clip0_1055_27423)">
<path d="M8 0C6.41775 0 4.87104 0.469192 3.55544 1.34824C2.23985 2.22729 1.21447 3.47672 0.608967 4.93853C0.00346629 6.40034 -0.15496 8.00887 0.153721 9.56072C0.462403 11.1126 1.22433 12.538 2.34315 13.6569C3.46197 14.7757 4.88743 15.5376 6.43928 15.8463C7.99113 16.155 9.59966 15.9965 11.0615 15.391C12.5233 14.7855 13.7727 13.7602 14.6518 12.4446C15.5308 11.129 16 9.58225 16 8C15.9977 5.87897 15.1541 3.84547 13.6543 2.34568C12.1545 0.845885 10.121 0.00229405 8 0V0ZM8 14.6667C6.68146 14.6667 5.39253 14.2757 4.2962 13.5431C3.19987 12.8106 2.34539 11.7694 1.84081 10.5512C1.33622 9.33305 1.2042 7.9926 1.46144 6.6994C1.71867 5.40619 2.35361 4.2183 3.28596 3.28595C4.21831 2.3536 5.4062 1.71867 6.6994 1.46143C7.99261 1.2042 9.33305 1.33622 10.5512 1.8408C11.7694 2.34539 12.8106 3.19987 13.5431 4.2962C14.2757 5.39253 14.6667 6.68146 14.6667 8C14.6647 9.76751 13.9617 11.4621 12.7119 12.7119C11.4621 13.9617 9.76752 14.6647 8 14.6667Z" fill="white"/>
<path d="M7.99935 2.66699C7.91094 2.66699 7.82616 2.70211 7.76365 2.76462C7.70113 2.82714 7.66602 2.91192 7.66602 3.00033V8.33366C7.66602 8.42206 7.70113 8.50685 7.76365 8.56936C7.82616 8.63187 7.91094 8.66699 7.99935 8.66699H12.9827C13.072 8.65373 13.154 8.60997 13.2148 8.54314C13.2755 8.47631 13.3113 8.39052 13.316 8.30033C13.3574 7.57638 13.2506 6.85161 13.0021 6.17038C12.7537 5.48914 12.3688 4.86577 11.8711 4.33843C11.3734 3.81108 10.7733 3.39084 10.1076 3.10345C9.44186 2.81605 8.72447 2.66753 7.99935 2.66699Z" fill="white"/>
</g>
<defs>
<clipPath id="clip0_1055_27423">
<rect width="16" height="16" fill="white"/>
</clipPath>
</defs>
</svg>
